<svg xmlns="http://www.w3.org/2000/svg" viewBox="0 0 1280 640" width="100%" height="100%">
  <defs>
    <linearGradient id="bg" x1="0%" y1="0%" x2="100%" y2="100%">
      <stop offset="0%" stop-color="#0b0f19" />
      <stop offset="100%" stop-color="#1e293b" />
    </linearGradient>
  </defs>

  <rect width="100%" height="100%" fill="url(#bg)" />

  <g transform="translate(100, 180)">
    <!-- GitHub Icon Placeholder -->
    <path d="M 0 0 C 0 -20 10 -35 25 -45 C 40 -55 60 -55 75 -45 C 90 -35 100 -20 100 0 C 100 15 90 30 75 40 L 75 55 L 25 55 L 25 40 C 10 30 0 15 0 0 Z" fill="#ffffff" opacity="0.05" />

    <text x="0" y="50" font-family="'Outfit', sans-serif" font-size="76" font-weight="900" fill="#ffffff" letter-spacing="1">VoltAudit AI</text>
    <text x="0" y="110" font-family="'Outfit', sans-serif" font-size="28" font-weight="600" fill="#3b82f6" letter-spacing="0.5">Enterprise Utility Invoice Auditing Platform</text>

    <rect x="0" y="145" width="450" height="4" fill="#f59e0b" rx="2" />

    <text x="0" y="200" font-family="'Outfit', sans-serif" font-size="18" font-weight="500" fill="#94a3b8">Powered by Google ADK Agent workforce &amp; FastMCP standard protocols</text>
    <text x="0" y="235" font-family="'Outfit', sans-serif" font-size="16" font-weight="400" fill="#64748b">Verified Python &amp; Streamlit Microservices • Strict SRE validation</text>
  </g>

  <!-- Styled Badge graphic on right -->
  <g transform="translate(980, 320) scale(1.1)">
    <polygon points="0,-120 100,-40 60,80 -60,80 -100,-40" fill="#111827" stroke="#f59e0b" stroke-width="4" />
    <g transform="translate(-160, -180) scale(0.7)">
      <path d="M 50 180 L 120 250 L 280 90" fill="none" stroke="#3b82f6" stroke-width="32" stroke-linecap="round" stroke-linejoin="round" />
      <path d="M 180 30 L 70 200 L 150 200 L 110 320 L 240 150 L 160 150 Z" fill="#f59e0b" />
    </g>
  </g>
</svg>
